<?xml version="1.0" encoding="utf-8"?>
<!-- Generator: Adobe Illustrator 27.5.0, SVG Export Plug-In . SVG Version: 6.00 Build 0)  -->
<svg version="1.1" id="Capa_1" xmlns="http://www.w3.org/2000/svg" xmlns:xlink="http://www.w3.org/1999/xlink" x="0px" y="0px"
	 viewBox="0 0 2122 2122" style="enable-background:new 0 0 2122 2122;" xml:space="preserve">
<path style="fill:#2E2E30;" d="M1461.978,1697.292c10.339-33.973,32.247-76.317,46.246-108.391c-2.881-1.32-6.042-2.348-8.45-4.084
	c-4.994-3.603-8.894-7.276-14.799-10.271c-6.026-3.056-11.264-7.292-17.148-10.585c-7.059-3.953-14.758-6.359-21.881-10.198
	c-21.797-11.746-44.238-21.9-64.968-35.483c-4.655-3.05-9.975-5.259-14.46-8.536c-4.668-3.411-8.283-8.229-12.711-11.958
	c-12.641-10.644-24.231-22.66-34.882-35.324c-5.815-6.914-13.385-12.401-18.117-20.047c-6.958-11.244-14.257-22.842-21.871-33.376
	c-1.933-2.672-4.378-5.578-5.303-8.865c-0.438-1.555-0.686-3.145-0.947-4.712c-0.986-1.574-1.961-3.155-2.918-4.747
	c-4.319,2.561-7.225,7.607-12.345,9.105c-3.586,1.05-7.804-0.455-11.381,0.539c-5.485,1.524-6.297,6.54-10.511,9.411
	c-6.185,4.213-15.754,2.958-22.558,1.923c-12.237-1.86-24.284-6.988-36.811-5.079c-2.456,0.375-4.627,1.003-6.645,1.802
	c6.911,9.592,15.08,18.535,25.41,26.493c67.899,52.311,191.342,113.561,219.343,122.895c28.002,9.333,35.953,47.392,32.409,63.002
	c-1.477,7.397-20.298,30.717-21.778,38.114c-4.077,15.205-14.91,53.372-19.447,68.447c2.075,17.112-7.778,24.371-4.667,38.891
	c0.616,2.871,0.804,5.689,0.732,8.435c0,0,0,0,0.001,0c-0.291,11.139-5.037,21.05-4.621,28.122
	c0.518,8.815,13.223,11.284,13.223,24.112c0,10.111,3.888,20.222,3.888,20.222c-0.348,0.448-0.859,0.812-1.292,1.216
	c6.694-3.632,12.855-8.708,18.248-12.948c1.922-11.272,8.312-21.156,14.603-31.486
	C1450.456,1776.226,1450.172,1736.083,1461.978,1697.292z"/>
<path style="fill:#A3563C;" d="M1378.688,1772.621c7.611,0.837,15.222,1.518,22.833,2.072c0.072-2.746-0.116-5.564-0.732-8.435
	c-3.111-14.52,6.742-21.779,4.667-38.891c4.536-15.075,15.37-53.242,19.447-68.447c1.479-7.397,20.301-30.717,21.778-38.114
	c3.544-15.61-4.407-53.668-32.409-63.002c-28.001-9.334-151.445-70.584-219.343-122.895c-10.33-7.958-18.499-16.901-25.41-26.493
	c-3.825,1.513-7.081,3.667-10.514,6.043c4.665,6.051,10.805,10.989,15.767,16.89c10.651,12.664,22.242,24.68,34.882,35.324
	c4.428,3.729,8.043,8.547,12.711,11.957c4.484,3.278,9.805,5.487,14.46,8.536c20.729,13.583,43.169,23.737,64.967,35.482
	c7.124,3.839,14.822,6.246,21.883,10.198c5.883,3.293,11.122,7.529,17.148,10.585c5.905,2.995,9.805,6.668,14.798,10.27
	c3.494,2.52,8.607,3.511,12.083,6.134c4.379,3.302,3.422,5.952,2.477,11.194c-0.963,5.345-0.107,10.61-0.957,15.98
	c-0.72,4.561-1.571,7.969-1.667,12.563c-0.245,11.694,0.049,23.45,0.049,35.147c0,10.985-0.093,21.974,0.048,32.958
	c0.111,8.639-2.023,16.953-2.178,25.543c-0.128,7.065-0.497,14.052-4.107,20.354c-3.147,5.491-10.093,10.334-15.377,14.718
	c-12.016,9.972-25.639,19.675-35.801,31.878c2.529,0.669,5.058,1.273,7.588,1.89c16.498,4.027,32.996,7.021,49.494,9.184
	C1371.078,1771.745,1374.883,1772.203,1378.688,1772.621z"/>
<path style="fill:#FCE2DC;" d="M1410.124,1826.927c0-12.828-12.705-15.297-13.223-24.112c-0.416-7.072,4.33-16.983,4.621-28.122
	c-0.001,0-0.001,0-0.001,0c-7.611-0.555-15.222-1.236-22.833-2.072c-3.805-0.418-7.61-0.875-11.417-1.374
	c-16.498-2.163-32.996-5.157-49.495-9.184c-2.529-0.617-5.058-1.221-7.587-1.891c-2.509,3.012-4.866,6.134-6.867,9.499
	c-8.017,13.481-17.074,25.856-17.13,41.181c-0.021,5.496-0.087,14.298,1.037,19.705c1.929,9.277,16.634,16.285,24.89,18.667
	c10.253,2.958,17.988,4.022,28.52,4.148c8.07,0.097,58.952,7.234,72.081-5.007c0.434-0.404,0.944-0.769,1.292-1.216
	C1414.012,1847.15,1410.124,1837.038,1410.124,1826.927z"/>
<path style="fill:#2E2E30;" d="M503.919,1312.127c3.186,3.676,7.602,4.688,8.83,9.99c1.383,5.977,3.943,8.969,8.561,12.599
	c3.624,1.557,6.292,4.084,8.006,7.581c0.596,0.812,1.193,1.625,1.79,2.437c3.76,5.122,8.788,6.987,14.581,8.825
	c4.82,1.528,9.212,2.145,12.771,5.038c-0.664-2.946-0.867-4.94-0.012-8.209c0.472-1.81,0.969-14.3,3.184-13.897
	c0.057,0.01,0.188,0.079,0.257,0.1c-0.15-1.099-0.289-2.181-0.442-3.284c-1.834,0.372-3.796-0.362-4.268-2.734
	c-2.342-11.775-3.77-23.738-5.09-35.664c-1.261-11.391-2.332-22.798-3.297-34.212c-3.664-5.358-7.363-10.862-11.08-16.479
	l-0.67,0.827c-2.272,0.555-2.639-1.409-3.31-2.921c-0.649-1.464-1.565-2.131-2.529-3.393c-1.121-1.464-1.598-2.412-3.271-3.234
	c-1.62-0.795-2.945-0.737-4.371-2.037c-4.294-3.91-5.085-9.922-6.984-14.998c-1.083-2.895-1.459-4.422-4.525-5.879
	c-3.237-1.537-6.946-1.719-9.598-4.482c-5.373-5.598-3.544-14.54-7.799-20.819c-2.104-3.106-5.162-5.486-7.341-8.606
	c-0.944-1.352-1.846-2.875-3.001-4.054c-1.199-1.222-2.636-1.94-4.098-2.638c3.896,32.646,9.499,80.667,15.671,136.932
	C498.331,1308.33,502.477,1310.463,503.919,1312.127z"/>
<path style="fill:#EECDBE;" d="M410.989,1730.309c-0.704,0.532-1.384,1.118-2.002,1.834c-2.374,2.756-4.03,5.952-5.693,9.172
	c-2.412,4.671-5.901,4.843-9.495,8.323c-4.661,4.512-5.02,11.531-7.806,17.134c-2.249,4.523-5.77,8.268-7.73,13.013
	c-2.179,5.276-4.39,9.77-4.191,15.777c0.183,5.513,2.917,11.534,4.728,16.73c1.324,3.79,3.062,7.289,4.613,10.885
	c1.462,3.39,1.904,7.674,5.118,10.151c1.901,1.466,3.225,1.154,5.46,1.286c7.17,0.423,9.662,9.295,16.333,10.947
	c2.229,0.552,5.03,0.417,7.236,0.764c2.812,0.442,5.594,1.362,8.423,1.735c5.268,0.694,10.585-1.346,15.943-0.881
	c1.455,0.127,2.902,0.414,4.345,0.762c-1.124-2.496-2.246-5-3.171-7.648c-1.813-5.196-4.546-11.217-4.729-16.731
	c-0.198-6.007,2.012-10.5,4.191-15.776c1.961-4.746,5.482-8.491,7.731-13.013c2.786-5.603,3.145-12.622,7.806-17.134
	c3.594-3.479,7.083-3.651,9.495-8.323c1.662-3.22,3.319-6.415,5.693-9.172c0.617-0.717,1.297-1.302,2.001-1.835
	c1.856-1.404,3.921-2.381,5.742-3.99c0.805-0.711,1.534-1.492,2.244-2.287C458.487,1750.039,434.163,1743.413,410.989,1730.309z"/>
<path style="fill:#A3563C;" d="M483.274,1752.032c2.042-2.288,3.924-4.698,6.986-5.906c1.327-0.523,3.617-0.09,4.85-0.631
	c2.053-0.901,3.773-3.4,5.379-4.889c4.196-3.889,8.754-5.594,13.745-8.111c2.745-1.385,6.698-2.553,8.987-4.65
	c1.384-1.267,1.632-2.638,2.553-4.325c2.205-4.043,5.964-5.496,8.778-8.983c2.532-3.139,4.183-5.455,4.383-9.362
	c0.206-4.023,2.104-7.617,2.175-11.696c0.066-3.764-0.926-8.099,1.336-11.49c1.511-2.264,2.423-1.967,4.122-3.303
	c3.552-2.791,3.429-7.53,3.907-11.515c0.356-2.96,1.314-5.776,1.706-8.743c0.35-2.642,0.169-5.577,1.452-8.019
	c0.871-1.656,2.895-2.798,3.701-4.422c0.798-1.603,0.266-3.516,0.039-5.12c-0.875-6.182,2.301-10.956,3.219-16.893
	c0.636-4.12-1.327-10.202,0.257-14.008c0.688-1.653,2.496-2.055,3.401-3.539c1.012-1.661,0.776-3.337,0.665-5.187
	c-0.304-5.062-2.956-9.585-3.223-14.606c-0.376-7.076,2.031-14.231,2.922-21.217c0.975-7.659,3.721-15.309,3.55-23.053
	c-0.059-2.725-1.292-4.718-1.239-7.399c0.101-5.138,1.021-10.314,1.679-15.4c0.941-7.276-1.053-14.269-1.553-21.483
	c-0.463-6.672-0.074-13.483-0.079-20.178c-0.007-11.694-1.512-23.048-0.554-34.741c0.431-5.257,0.794-10.524,1.328-15.772
	c0.341-3.353,1.239-6.747,1.17-10.121c-0.054-2.68-0.79-5.196-1.278-7.828c-0.7-3.781-0.865-7.6-1.7-11.366
	c-0.479-2.16-1.454-4.05-2.075-6.047c-0.963-3.102-0.899-6.328-1.011-9.522c-0.116-3.302-1.187-6.574-1.87-9.61
	c-0.327-1.457,0.002-2.87-0.195-4.362c-0.383-2.896-1.403-5.986-2.084-8.816c-0.1-0.414-0.163-0.747-0.248-1.123
	c-3.56-2.893-7.951-3.51-12.771-5.038c-5.794-1.837-10.821-3.703-14.581-8.825c-0.597-0.812-1.193-1.625-1.79-2.437
	c-1.714-3.497-4.382-6.024-8.006-7.581c-4.618-3.63-7.178-6.623-8.561-12.599c-1.228-5.302-5.644-6.314-8.83-9.99
	c-1.442-1.664-5.588-3.797-8.035-3.21c-0.633,0.152-1.183,0.443-1.506,1.024c0.033,1.738-0.286,2.519-0.86,3.864
	c1.702,1.133,1.102,6.772,0.629,8.582c-0.964,3.687-0.621,5.677,0.26,9.333c0.681,2.83,1.701,5.92,2.083,8.816
	c0.197,1.492-0.132,2.905,0.196,4.362c0.682,3.036,1.753,6.309,1.869,9.611c0.111,3.194,0.047,6.42,1.012,9.522
	c0.62,1.997,1.596,3.887,2.074,6.047c0.835,3.766,1,7.585,1.7,11.367c0.488,2.632,1.224,5.148,1.278,7.828
	c0.068,3.374-0.83,6.768-1.17,10.121c-0.534,5.248-0.897,10.515-1.328,15.772c-0.958,11.693,0.547,23.047,0.554,34.741
	c0.004,6.694-0.384,13.505,0.078,20.177c0.5,7.214,2.493,14.207,1.553,21.483c-0.658,5.086-1.578,10.262-1.679,15.4
	c-0.052,2.681,1.18,4.674,1.239,7.399c0.171,7.744-2.575,15.394-3.551,23.053c-0.89,6.986-3.297,14.141-2.922,21.217
	c0.267,5.021,2.92,9.544,3.224,14.606c0.11,1.851,0.345,3.526-0.667,5.188c-0.904,1.484-2.713,1.886-3.401,3.539
	c-1.583,3.806,0.381,9.888-0.256,14.008c-0.918,5.937-4.094,10.711-3.218,16.893c0.227,1.604,0.759,3.517-0.039,5.12
	c-0.807,1.624-2.831,2.766-3.701,4.422c-1.283,2.442-1.103,5.378-1.452,8.02c-0.393,2.967-1.349,5.783-1.706,8.742
	c-0.478,3.985-0.355,8.724-3.908,11.516c-1.7,1.336-2.611,1.039-4.122,3.303c-2.262,3.391-1.27,7.726-1.336,11.49
	c-0.071,4.079-1.969,7.673-2.175,11.696c-0.199,3.907-1.851,6.223-4.383,9.362c-2.814,3.486-6.573,4.94-8.778,8.983
	c-0.922,1.687-1.17,3.058-2.554,4.325c-2.29,2.096-6.243,3.265-8.988,4.649c-4.989,2.517-9.548,4.222-13.744,8.111
	c-1.605,1.489-3.325,3.988-5.379,4.889c-1.233,0.54-3.524,0.108-4.85,0.631c-4.126,1.627-6.11,5.438-9.23,8.193
	c-1.821,1.609-3.886,2.587-5.742,3.991C434.163,1743.413,458.487,1750.039,483.274,1752.032z"/>
<g>
	<path style="fill:#3E3F42;" d="M1918.704,1291.769c-53.253-47.537-75.51-127.187-84.413-216.21
		c-7.47-74.701-3.112-124.45-71.559-230.232c-41.159-63.61-242.677-102.672-242.677-102.672s0.072,0.319,0.197,0.875
		c-39.409-21.553-89.874-34.005-161.982-25.764c-108.894,12.445-253.048-39.409-404.463-43.558
		c-120.476-3.301-150.323-14.546-166.453-57.558c-5.98-15.948-26.212-66.726-43.123-116.074c-0.151,0.314-0.274,0.651-0.435,0.957
		c-22.97,43.853-159.329,101.274-180.507,86.612c-14.976-10.367-42.356-76.567-22.807-177.57
		c12.172-62.887,9.04-108.611,30.952-118.923c20.787-9.781,74.468,19.601,109.596,49.328
		c-27.397-40.674-60.578-76.585-75.685-82.124c-62.225-22.816-110.449-28.002-147.784-21.779
		c-31.749,5.291-89.336,20.72-119.262,47.217c-0.013,12.096-1.617,24.363-2.083,29.046c-1.064,10.705-5.752,20.648-9.71,30.546
		c-7.3,18.263-17.35,31.175-31.018,44.976c-12.874,13-24.005,25.408-39.526,35.342c-7.777,3.216-14.071,8.223-18.884,15.022
		c-2.508,7.678-2.93,15.487-1.268,23.428c2.707,11.48,10.156,15.974,19.768,21.646c12.48,7.366,25.772,9.711,39.321,14.302
		c5.343,1.811,9.352,3.626,14.953,4.202c10.521,1.08,19.633-2.862,30.182-2.672c8.47,0.153,16.123,1.755,23.94,3.814
		c0.024-2.344,0.593-4.599,2.725-6.812c3.007-3.121,7.269-5.034,11.511-4.864c8.525,0.341,16.019,4.949,24.022,7.216
		c7.597,2.151,11.904,7.96,18.695,11.611c2.912,1.566,5.679,2.249,8.175,4.54c1.937,1.778,3.278,4.11,4.947,6.119
		c3.812,4.588,6.622,5.073,10.71,8.314c1.366,1.084,2.002,2.198,3.164,3.619c2.307,2.821,5.571,4.052,8.014,6.747
		c1.793,1.977,4.858,4.219,5.883,6.71c0.56,1.362,0.425,2.835,0.998,4.175c0.365,0.852,1.091,1.399,1.497,2.201
		c1.06,2.095,1.075,4.398,2.234,6.453c0.981,1.739,2.369,2.117,3.498,3.582c1.772,2.299,0.676,3.708,0.322,6.647
		c-0.35,2.9-0.094,4.504,0.91,7.293c2.39,6.639,6.265,11.644,7.328,18.681c0.582,3.852,0.799,6.256,2.258,9.699
		c1.251,2.951,2.362,4.701,2.925,7.804c0.635,3.495,0.206,7.11,2.025,10.387c1.183,2.131,2.824,4.003,4.533,5.708
		c2.194,2.188,4.728,4.235,6.205,7.012c1.164,2.188,1.758,4.682,2.925,6.885c1.798,3.396,5.458,5.776,6.745,9.296
		c1.287,3.522,0.554,7.639,0.88,11.356c0.378,4.309-0.149,8.56-0.231,12.869c-0.116,6.112-2.846,11.911-2.04,18.103
		c0.343,2.638,2.73,6.742,2.323,9.28c-0.335,2.082-1.758,4.545-2.652,6.403c-0.647,1.342-1.058,2.732-1.36,4.143
		c0.224,16.777,3.214,33.383-3.506,49.667c-2.867,6.949-5.883,12.281-6.926,19.968c-1.331,9.805,0.126,19.775-1.341,29.557
		c-2.76,18.384-12.371,33.577-10.354,52.903c1.462,9.413,3.956,18.541,7.483,27.385c0.972,2.521,1.945,5.043,2.918,7.564
		c0.899,5.072,0.105,9.889,0.833,15.21c1.256,9.186,3.513,14.873,9.14,21.74c9.519,11.613,15.946,32.209,12.778,47.083
		c-2.093,9.82-6.384,15.882-0.357,25.351c4.876,7.662,11.462,12.638,15.16,21.314c2.266,6.341,4.12,12.8,5.565,19.378
		c2.214,6.369,4.52,12.703,6.919,19.003c2.647,10.049,1.581,20.688,3.162,30.906c0.717,4.634,3.584,11.351,2.931,16.295
		c-0.401,3.041-0.904,6.831-1.697,9.812c-0.388,1.46-0.762,3.53-1.174,4.891l-1.246,3.463c-0.082,2.511,1.102,4.373,1.204,7.371
		c0.018,0.523,0.152,0.971,0.229,1.454c1.911,0.105,3.838,1.347,4.021,3.778c0.741,9.808,1.329,19.628,1.96,29.444
		c1.698,26.43,3.448,52.858,5.663,79.251c1.974,23.522,3.724,47.364,8.336,70.55c0.525,2.638-1.358,4.433-3.4,4.847
		c0.153,1.103,0.292,2.186,0.442,3.284c2.634,0.763,13.966,8.362,15.162,13.528c1.383,5.977,3.942,8.969,8.561,12.599
		c3.623,1.557,6.291,4.085,8.005,7.581c0.596,0.812,1.193,1.624,1.79,2.437c3.76,5.122,8.788,6.987,14.582,8.825
		c6.107,1.936,11.547,2.347,15.447,7.873c3.206,4.542,5.025,9.76,9.647,13.177c4.32,3.194,11.85,3.544,16.947,5.02
		c3.076,0.607,5.89,1.849,8.439,3.725c0.703,1.892,1.403,3.784,2.105,5.676c0.453,5.693,3.135,9.995,8.043,12.903
		c1.389,0.418,2.776,0.834,4.165,1.251c7.635,2.292,14.883,4.172,22.152,7.477c8.601,3.91,16.236,8.564,25.855,9.335
		c3.047,0.705,6.021,0.462,8.921-0.731c0.767,0.505,1.536,1.009,2.304,1.513c2.318,3.513,5.515,5.586,9.589,6.219
		c1.612,0.551,3.223,1.103,4.835,1.655c7.878,0.493,15.668,1.598,23.369,3.314c2.608,1.225,5.217,2.451,7.826,3.676
		c4.895,2.859,8.676,7.913,13.628,10.844c8.308,4.918,18.62,2.455,27.673,4.381c0.619,0.132,3.692,0.926,5.944,2.04
		c4.551-16.248,8.626-32.771,12.09-49.563c4.964,3.889,11.609,1.89,17.354,0.396c6.169-1.604,13.369-0.632,18.667,3.011
		c3.135,2.155,5.94,8.536,10.478,8.651c2.476,0.063,7.329-2.424,9.761-3.713c5.05-2.677,6.856-5.28,12.888-3.842
		c4.511,1.075,9.814,3.509,14.117,5.288c4.241,1.754,8.08,3.892,12.73,4.501c6.477,0.848,7.255,0.468,10.909-3.94
		c8.975-10.822,20.307-4.873,31.212-2.067c6.196,1.594,14.238,4.356,20.734,3.765c2.219-0.202,7.734-1.037,10.179-2.074
		c4.89-2.073,6.181-6.745,10.052-9.96c4.864-4.042,8.668-4.111,14.376-2.774c8.752,2.051,16.91,1.699,25.61,3.193
		c8.527,1.464,15.795,1.2,24.263-1.707c3.576-1.228,7.355-2.924,10.577-4.911c3.566-2.198,6.014-6.835,10.023-8.245
		c8.459-2.976,23.725,2.632,32.125,3.569c6.97,0.778,12.815,1.426,18.839-2.519c1.815-1.188,3.499-2.372,5.142-3.51
		c3.433-2.376,6.69-4.53,10.514-6.043c2.018-0.799,4.189-1.427,6.645-1.802c12.527-1.908,24.574,3.219,36.811,5.079
		c6.803,1.034,16.373,2.29,22.558-1.923c4.214-2.871,5.026-7.887,10.511-9.411c3.577-0.994,7.795,0.511,11.381-0.539
		c5.12-1.498,8.026-6.544,12.345-9.105c0.956,1.593,1.931,3.173,2.918,4.747c-0.334-1.997-0.688-3.953-1.474-5.725
		c-0.938-2.117-1.683-4.311-2.354-6.538c-1.513-0.063-2.992-0.888-3.588-2.724c-8.243-25.359-8.362-53.745-7.92-80.128
		c0.474-28.333,2.682-56.92,7.916-84.796c0.939-4.998,8.551-2.869,7.618,2.1c-4.47,23.804-6.603,48.142-7.381,72.377
		c0.27,1.241,0.558,2.495,0.879,3.75c4.356,10.483,8.055,21.197,11.098,32.139c5.058,15.638,13.363,29.335,24.916,41.093
		c5.139,6.245,10.278,12.492,15.417,18.738c10.039,16.515,21.798,31.719,35.278,45.614c15.359,13.232,32.882,21.986,52.567,26.26
		c15.566,6.417,27.956,13.003,41.568,23.518c8.945,7.996,18.348,15.405,28.211,22.229c12.427,4.322,24.922,8.444,37.482,12.368
		c10.45,6.772,21.597,12.047,33.438,15.827c7.199,0.31,14.397,0.62,21.595,0.929c20.584,0.187,33.436,10.197,38.557,30.031
		c-0.967,9.344-8.487,21.713-9.453,31.058c-5.198,15.144-2.679,42.726-6.223,58.336c-1.478,7.397-20.3,30.716-21.779,38.113
		c-4.077,15.205-14.91,53.373-19.446,68.448c2.074,17.111-7.778,24.371-4.667,38.891c0.616,2.872,0.804,5.689,0.732,8.435
		c-0.291,11.139-5.036,21.05-4.62,28.122c0.518,8.815,13.223,11.284,13.223,24.112c0,8.168,2.509,16.242,3.484,19.079
		c13.183-2.658,25.325-7.042,34.6-14.271c22.063-17.196,25.395-81.02,51.335-136.377c16.275-34.73,48.596-108.546,54.735-137.556
		c8.122-38.38-66.374-114.079-64.3-168.008c1.86-48.347,62.779-179.726,70.932-252.493c9.939,54.067,7.272,115.417,15.957,171.636
		c0.091,0.1,1.761,1.933,3.338,2.752c1.62,0.843,15.15,0.414,20.984,0.729c9.091,0.491,16.939,4.734,25.231,7.928
		c13.365,5.147,25.883,5.998,39.823,7.598c10.403,1.194,15.29,4.217,23.153,10.943c3.38,2.892,7.621,6.847,12.525,4.318
		c5.501-2.838,5.704-12.93,8.37-17.825c5.31-9.752,15.209-7.846,24.181-12.329c6.919-3.458,9.333-10.89,13.223-15.557
		c3.889-4.667,9.378-1.094,11.926-7c1.344-3.115,9.354-3.753,10.111-7c0.643-2.758-0.097-7.404,0.778-9.852
		c1.297-3.63,3.371-2.593,5.445-5.186C1922.308,1296.822,1920.517,1293.794,1918.704,1291.769z"/>
	<path style="fill:#3E3F42;" d="M338.075,284.486l0.061-0.058c-0.019,0.017-0.041,0.033-0.06,0.049L338.075,284.486z"/>
	<path style="fill:#3E3F42;" d="M338.136,284.428c0.052-0.046,0.112-0.089,0.164-0.135c0-0.007,0.001-0.013,0.001-0.019
		L338.136,284.428z"/>
</g>
<path d="M372.012,369.151c-10.131,1.369-17.072,11.897-15.501,23.516c1.57,11.619,11.056,19.928,21.188,18.559
	c10.132-1.369,17.072-11.898,15.502-23.517C391.63,376.091,382.144,367.782,372.012,369.151z"/>
<path style="fill:#C2775C;" d="M389.954,308.736c-12.725-1.615-30.538-2.874-31.701,10.049
	c-1.162,12.923,17.382,14.376,26.339,17.224c11.874,3.776,21.406,2.145,24.934-7.676
	C413.318,317.776,408.424,311.079,389.954,308.736z"/>
<path d="M1311.365,1837.716c0.476,2.143,2.599,3.495,4.743,3.019s3.495-2.6,3.019-4.743l0,0c-0.866-3.897-1.289-7.89-1.289-11.894
	c-0.014-15.852,6.667-31.844,18.254-42.58c1.608-1.494,1.702-4.009,0.208-5.618c-1.494-1.609-4.009-1.702-5.618-0.209
	c-13.317,12.388-20.781,30.358-20.795,48.406C1309.888,1828.66,1310.369,1833.231,1311.365,1837.716z"/>
<path d="M1355.015,1840.841c2.166-0.358,3.632-2.404,3.274-4.571h0c-0.49-2.96-0.73-5.961-0.73-8.968
	c-0.006-12.789,4.375-25.654,12.328-35.626c1.368-1.717,1.085-4.218-0.632-5.586c-1.717-1.368-4.218-1.086-5.586,0.632
	c-9.124,11.464-14.054,25.992-14.061,40.58c0,3.431,0.275,6.866,0.836,10.265
	C1350.802,1839.734,1352.849,1841.199,1355.015,1840.841z"/>
<path d="M411.802,1761.345c1.227-1.821,0.746-4.292-1.074-5.519c-1.82-1.228-4.291-0.747-5.518,1.073
	c-12.589,18.675-19.393,41.096-19.397,63.601c0,1.733,0.04,3.466,0.122,5.197c0.103,2.193,1.965,3.887,4.158,3.785
	c2.194-0.103,3.888-1.965,3.785-4.158h0c-0.075-1.608-0.114-3.216-0.114-4.823C393.759,1799.601,400.115,1778.666,411.802,1761.345z
	"/>
<path style="fill:#2E2E30;" d="M571.435,291.652c-21.913,10.312-18.781,56.036-30.952,118.923
	c-19.549,101.003,7.832,167.203,22.807,177.57c21.178,14.662,157.537-42.758,180.507-86.612c0.16-0.307,0.283-0.643,0.435-0.957
	c15.945-33.163-20.804-108.156-36.214-131.271c-5.686-8.53-15.313-18.447-26.987-28.326
	C645.903,311.253,592.221,281.87,571.435,291.652z"/>
<path d="M1729.231,914.273c-1.551-4.856-9.23-2.781-7.668,2.113c11.595,36.306,10.571,75.127,6.011,112.551
	c-5.239,42.989-15.357,85.259-24.563,127.52c-1.087,4.988,6.577,7.119,7.667,2.114c9.361-42.973,19.52-85.922,24.847-129.633
	C1740.168,990.839,1741.031,951.225,1729.231,914.273z"/>
<path style="fill:#FCE2DC;" d="M329.791,653.254c-2.066-1.509,2.771-11.682,3.972-13.7c3.127-5.247,6.047-10.142,10.487-14.402
	c4.38-4.202,8.998-8.163,12.477-13.17c2.298-3.308,4.079-6.817,5.786-10.469c3.147-6.732,5.273-12.549,1.265-19.03
	c-1.144-1.849-2.339-3.59-3.49-5.343c-14.364,6.689-31.033,11.58-49.451,16.701c-28.836,7.986-62.01,16.483-97.416,32.648
	c-0.433,0.198-0.869,0.347-1.303,0.519c0.164,0.413,0.33,0.823,0.63,1.151c0.995,1.092,2.36,1.01,3.536,1.908
	c2.444,1.87,2.183,5.594,4.425,7.619c0.888,0.802,2.346,1.036,3.468,1.523c1.82,0.79,3.176,1.097,4.139,3.071
	c1.159,2.37,0.771,3.561,3.253,4.703c1.643,0.756,4.027,2.063,5.831,2.374c2.053,0.356,4.032,0.244,6.092,0.911
	c0.945,0.306,1.722,0.955,2.675,1.227c1.123,0.321,2.247-0.118,3.309,0.191c1.279,0.373,2.129,1.372,3.521,1.581
	c1.035,0.156,2.117-0.405,3.151,0.053c1.904,0.843,2.609,3.307,5.197,2.917c1.313-0.198,2.465-1.718,3.672-2.296
	c1.914-0.916,4.124-1.127,6.105-1.908c1.425-0.562,3.422-1.848,5.056-1.292c1.52,0.517,1.771,2.088,3.134,2.935
	c4.785,2.973,10.852-0.517,15.74-1.129c2.575-0.322,9.392-1.225,9.986,2.819c1.461-4.818,8.412-3.779,12.195-3.748
	c3.09,0.026,6.054,0.298,8.918,1.543c1.494,0.65,2.587,1.258,3.605,1.636c-0.087-0.108-0.192-0.178-0.274-0.294
	C330.967,652.704,330.38,652.979,329.791,653.254z"/>
<path style="fill:#FCE2DC;" d="M487.312,1178.676c2.179,3.12,5.237,5.5,7.341,8.606c4.255,6.279,2.426,15.221,7.799,20.819
	c2.652,2.763,6.361,2.945,9.598,4.482c3.066,1.456,3.442,2.984,4.525,5.879c1.899,5.076,2.69,11.088,6.984,14.998
	c1.427,1.3,2.751,1.241,4.371,2.037c1.673,0.822,2.151,1.771,3.271,3.234c0.964,1.262,1.88,1.929,2.529,3.393
	c0.671,1.512,1.037,3.476,3.31,2.921l0.67-0.827l0.004-0.005c3.716,5.616,7.409,11.094,11.074,16.455
	c-3.137-37.109-5.049-74.315-7.853-111.454c-0.201-2.661,1.856-3.892,3.93-3.778c-0.078-0.483-0.211-0.931-0.229-1.454
	c-0.103-2.998-1.286-4.86-1.204-7.371l1.246-3.463c0.412-1.361,0.786-3.431,1.174-4.891c0.793-2.981,1.296-6.771,1.697-9.812
	c0.653-4.944-2.214-11.661-2.931-16.295c-1.581-10.218-0.514-20.857-3.162-30.906c-2.399-6.3-4.705-12.634-6.919-19.003
	c-1.445-6.579-3.299-13.038-5.565-19.378c-3.698-8.676-10.284-13.652-15.16-21.314c-6.027-9.47-1.736-15.531,0.357-25.351
	c3.168-14.873-3.259-35.469-12.778-47.083c-5.627-6.866-7.884-12.553-9.14-21.74c-0.728-5.321,0.066-10.138-0.833-15.21
	c-0.972-2.521-1.945-5.043-2.918-7.564c-3.527-8.844-6.021-17.972-7.483-27.385c-2.017-19.326,7.594-34.519,10.354-52.903
	c1.467-9.782,0.01-19.752,1.341-29.557c1.043-7.687,4.059-13.018,6.926-19.968c6.721-16.285,3.73-32.89,3.506-49.667
	c-1.07,5.01-0.456,10.369-1.352,15.471c-1.075,6.122-4.125,12.836-8.355,17.451c-2.184,2.382-4.053,3.483-6.858,4.884
	c-3.156,1.576-4.646,3.293-6.391,6.311c-3.071,5.313-1.531,13.466-8.267,16.245c-5.108,2.107-8.277,2.763-10.143,9.063
	c-1.447,4.886-1.161,10.832-5.963,13.911c-2.174,1.395-4.758,0.972-6.886,2.533c-1.801,1.32-3.152,3.617-4.056,5.64
	c-1.766,3.951-0.344,7.634-0.851,11.596c-0.487,3.81-1.891,6.488-4.456,9.439c-4.834,5.564-10.277,10.236-16.694,13.608
	c-5.019,2.638-7.62,7.069-10.33,12.059c-1.829,3.369-2.331,4.499-4.876,6.845c-1.488,1.372-3.169,2.561-4.42,4.183
	c-1.919,2.49-3.135,5.63-3.319,8.813c-0.115,1.988-0.266,4.445-1.023,5.515c-1.624,4.473-3.538,8.869-3.699,13.677
	c-0.28,8.395,2.732,17.172,3.52,25.549c1.016,10.806,5.529,20.495,4.567,31.414c-0.689,7.82,2.611,12.187,5.448,18.956
	c2.72,6.492,3.193,15.356,0.751,22.004c-0.506,1.377-1.398,2.645-1.335,4.194c0.105,2.624,2.358,4.697,3.279,7.031
	c2.019,5.113,0.679,12.202,0.571,17.543c-0.086,4.245-0.726,8.835-0.165,13.056c0.81,6.081,5.11,10.97,5.722,17.066
	c0.286,2.852-0.486,5.693-0.07,8.551c0.601,4.128,3.217,6.645,5.722,9.747c2.014,2.493,3.783,5.187,6.371,7.144
	c2.078,1.571,3.663,2.64,4.904,5.086c2.296,4.528,0.214,9.499,3.124,14.008c2.776,4.302,6.757,7.293,9.26,11.831
	c2.024,3.67,4.993,7.307,6.138,11.375c1.872,6.658-1.081,12.432,4.265,18.167c3.016,3.235,7.806,4.954,10.159,8.825
	c1.114,1.833,0.984,3.53,1.279,5.524c0.512,3.457,1.721,6.652,2.664,10.001c1.241,4.415,1.912,8.508,5.939,11.037
	c0.937,0.588,1.922,1.044,2.897,1.51c1.462,0.697,2.899,1.416,4.098,2.638C485.466,1175.801,486.367,1177.324,487.312,1178.676z"/>
<path style="fill:#FCE2DC;" d="M362.012,527.383c0.3-4.729,2.65-9.723,2.678-14.532c0.017-3.171-0.744-6.103-0.714-8.905
	c-7.817-2.059-15.47-3.66-23.94-3.814c-10.549-0.19-19.661,3.752-30.182,2.672c-5.601-0.576-9.61-2.391-14.953-4.202
	c-13.549-4.592-26.84-6.937-39.321-14.302c-9.611-5.672-17.061-10.167-19.768-21.646c-1.662-7.941-1.24-15.75,1.268-23.428
	c4.813-6.799,11.107-11.806,18.884-15.022c15.521-9.935,26.652-22.342,39.526-35.342c13.668-13.801,23.718-26.712,31.018-44.976
	c3.957-9.899,8.646-19.841,9.71-30.546c0.466-4.686,2.071-16.963,2.083-29.066l-0.226,0.212l0.002-0.009l0.098-0.437
	c-0.51,0.09-0.734,0.538-1.148,0.779c-0.607,0.353-1.356,0.502-1.978,0.845c-0.927,0.513-1.471,1.301-2.367,1.88
	c-1.074,0.694-2.308,1-3.316,1.786c-1.155,0.901-2.016,2.126-3.238,2.949c-0.986,0.664-1.333,1.229-1.998,2.208
	c-0.906,1.336-2.009,2.561-3.386,3.422c-0.756,0.473-1.664,0.689-2.385,1.201c-2.608,1.861-2.45,6.667-3.174,9.52
	c-0.548,2.159-1.756,3.863-2.637,5.866c-0.564,1.284-0.893,1.48-2.097,2.375c-1.671,1.243-3,2.612-3.737,4.605
	c-0.661,1.786-1.063,3.671-1.508,5.524c-0.595,2.48-0.901,4.528-2.019,6.857c-0.814,1.69-1.572,3.38-2.37,5.075
	c-1.621-0.018-1.526,1.481-1.998,2.721c-0.502,1.324-1.294,2.502-1.854,3.799c-1.079,2.494-2.471,5.711-4.73,7.346
	c-2.152,1.558-3.868,2.669-3.543,5.513c0.154,0.773,0.028,1.509-0.376,2.208c-0.38,0.959-0.648,1.947-0.802,2.966
	c-0.326,0.844-0.199,0.663-0.791,1.132c-0.842,0.352-1.587,0.853-2.237,1.501c-0.793,0.806-1.464,1.704-2.01,2.693
	c-0.506,0.985-0.611,1.743-0.816,2.769c-0.388,1.927-1.384,4.06-2.815,5.464c-0.651,0.639-1.471,0.801-2.145,1.529
	c-0.556,0.6-0.959,1.18-1.113,2.022c-0.3,1.656,0.08,2.06-1.224,3.37c-0.702,0.705-1.513,1.354-2.325,1.917
	c-1.419,0.983-2.734,1.082-4.255,1.748c-0.831,0.364-1.604,1.048-2.351,1.522c-1.555,0.988-3.187,1.937-4.853,2.717
	c-0.826,0.386-1.64,0.915-2.545,1.101c-0.46,0.095-1.026-0.072-1.462,0.03c-1.761,0.416-3.01,2.311-4.322,3.465
	c-1.793,1.578-3.39,2.087-5.657,2.62c-1.921,0.451-4.122,1.325-5.682,2.576c-0.481,0.386-0.8,0.947-1.21,1.392
	c-0.798,0.869-1.822,1.294-2.919,1.67c-2.079,0.714-4.29,0.725-6.351,1.491c-1.214,0.451-2.489,1.116-3.462,1.982
	c-0.68,0.605-0.983,1.326-1.576,1.97c-1.002,1.091-2.188,1.051-3.588,1.227c-1.81,0.228-3.299,0.482-4.609,1.832
	c-1.353,1.394-1.873,2.732-3.764,3.562c-1.747,0.767-3.488,0.449-5.183,1.125c-1.557,0.622-2.729,1.22-3.965,2.399
	c-1.367,1.303-2.355,3.008-4.084,3.855c-1.438,0.704-2.774,0.711-4.342,0.739c-4.055,0.074-6.078,4.033-8.558,6.612
	c-1.485,1.545-3.24,1.794-5.192,2.445c-2.298,0.766-2.926,2.54-4.475,4.208c-1,1.078-2.32,1.301-3.607,1.916
	c-0.83,0.396-1.072,0.897-1.631,1.577c-0.459,0.557-0.97,0.873-1.372,1.536c-0.546,0.899-0.757,1.731-1.361,2.38l-0.733,0.47
	l-0.505,0.324c-0.001,0-0.001,0-0.001,0c-0.618,0.219-1.277,0.319-1.766,0.789l-0.706,0.818c0,0-0.001,0-0.001,0.001
	c-0.016,0.011-0.031,0.021-0.047,0.033c0.05,0.082,4.989,8.126,5.861,20.33c0.61,8.544-4.276,21.854-14.647,38.447
	c-6.526,10.442-7.04,23.836-6.217,33.672c3.358,9.412,7.232,19.82,11.594,29.988c5.622,13.121,12.066,25.794,19.005,35.079
	c4.612,6.2,9.448,10.833,14.088,13.223c2.657,1.374,5.212,2.051,7.795,2.054c2.143-0.003,4.345-0.464,6.738-1.552
	c36.153-16.504,69.872-25.117,98.594-33.077c18.166-5.014,34.272-9.818,47.761-16.023c-0.153-0.371-0.346-0.709-0.484-1.093
	c-2.324-6.458-2.498-12.979,0.774-19.277c1.995-3.84,5.187-7.081,5.428-11.725C362.378,534.524,361.785,530.947,362.012,527.383z"/>
<path d="M540.935,1149.214c2.804,37.14,4.716,74.345,7.853,111.454c0,0.01,0.002,0.019,0.002,0.028
	c0.965,11.414,2.036,22.821,3.297,34.212c1.32,11.925,2.747,23.889,5.09,35.664c0.472,2.372,2.434,3.105,4.268,2.734
	c2.042-0.414,3.924-2.21,3.4-4.847c-4.611-23.186-6.362-47.028-8.336-70.55c-2.215-26.393-3.965-52.821-5.663-79.251
	c-0.631-9.816-1.219-19.635-1.96-29.444c-0.183-2.431-2.109-3.673-4.021-3.778C542.791,1145.321,540.734,1146.553,540.935,1149.214z
	"/>
<path style="fill:#C2775C;" d="M506.872,677.192c0.082-4.31,0.609-8.56,0.231-12.869c-0.326-3.716,0.407-7.834-0.88-11.356
	c-1.286-3.52-4.947-5.901-6.745-9.296c-1.167-2.203-1.762-4.697-2.925-6.885c-1.478-2.777-4.012-4.824-6.205-7.012
	c-1.709-1.705-3.35-3.577-4.533-5.708c-1.819-3.277-1.39-6.892-2.025-10.387c-0.563-3.104-1.673-4.853-2.925-7.804
	c-1.459-3.443-1.676-5.846-2.258-9.699c-1.063-7.036-4.939-12.042-7.328-18.681c-1.003-2.789-1.26-4.393-0.91-7.293
	c0.355-2.939,1.45-4.347-0.322-6.647c-1.129-1.465-2.517-1.842-3.498-3.582c-1.159-2.055-1.174-4.358-2.234-6.453
	c-0.407-0.802-1.133-1.35-1.497-2.201c-0.573-1.339-0.438-2.813-0.998-4.175c-1.025-2.49-4.09-4.733-5.883-6.71
	c-2.443-2.695-5.706-3.925-8.014-6.747c-1.162-1.421-1.798-2.535-3.164-3.619c-4.089-3.241-6.899-3.726-10.71-8.314
	c-1.668-2.009-3.009-4.341-4.947-6.119c-2.496-2.291-5.263-2.974-8.175-4.54c-6.791-3.651-11.098-9.459-18.695-11.611
	c-8.003-2.267-15.497-6.875-24.022-7.216c-4.242-0.17-8.503,1.744-11.511,4.864c-2.132,2.213-2.701,4.468-2.725,6.812
	c-0.029,2.802,0.732,5.734,0.714,8.905c-0.027,4.809-2.378,9.803-2.678,14.532c-0.226,3.564,0.366,7.142,0.182,10.677
	c-0.241,4.644-3.432,7.885-5.428,11.725c-3.272,6.298-3.098,12.819-0.774,19.277c0.138,0.384,0.331,0.722,0.484,1.093
	c7.855-3.613,14.833-7.695,20.786-12.585c1.699-1.391,4.203-1.14,5.594,0.56c1.39,1.699,1.139,4.204-0.56,5.594
	c-6.511,5.308-13.902,9.64-22.008,13.416c1.151,1.754,2.346,3.494,3.49,5.343c4.009,6.481,1.882,12.298-1.265,19.03
	c-1.707,3.652-3.488,7.161-5.786,10.469c-3.478,5.007-8.097,8.968-12.477,13.17c-4.441,4.26-7.36,9.155-10.487,14.402
	c-1.201,2.018-6.039,12.191-3.972,13.7c0.588-0.275,1.176-0.55-0.31,1.249c0.083,0.116,0.188,0.187,0.274,0.294
	c3.172,3.957,8.908,2.688,13.001,6.213c3.612,3.11,4.311,7.955,7.958,11.111c4.85,4.197,8.945,8.574,7.289,15.657
	c-0.841,3.592-0.567,7.647,2.563,10.075c1.406,1.092,2.253,1.043,3.175,2.88c1.032,2.056,1.566,4.46,2.03,6.661
	c0.408,1.927,0.83,3.25,0.565,5.155c-0.244,1.759-0.846,3.344-0.604,5.212c0.194,1.494,0.617,3.546,1.692,4.623
	c1.798,1.799,2.655,1.454,3.329,4.414c0.971,4.262,0.211,9.412,0.211,13.78c0,4.954,0.174,8.544,1.813,13.232
	c2.001,5.721,1.293,10.976,0.272,16.882c-0.64,3.702-2.07,8.134-1.669,11.861c0.254,2.362,1.226,2.939,2.72,4.465
	c2.904,2.968,3.558,6.841,4.005,11.033c0.256,2.401,0.94,4.667,1.208,7.031c0.425,3.756-0.185,7.447,0.428,11.254
	c0.877,5.452,2.782,9.974,2.679,15.588c-0.063,3.414-1.238,6.765-1.214,10.126c0.021,2.958,2.258,5.072,3.731,7.455
	c1.862,3.012,3.301,5.933,3.994,9.41c0.591,2.961,1.886,5.321,2.569,8.185c0.988,4.141,1.188,6.996,3.923,10.252
	c1.827,2.174,2.854,2.217,3.479,1.336c0.757-1.07,0.908-3.527,1.023-5.515c0.184-3.183,1.399-6.323,3.319-8.813
	c1.251-1.622,2.932-2.811,4.42-4.183c2.545-2.346,3.047-3.476,4.876-6.845c2.71-4.99,5.31-9.421,10.33-12.059
	c6.417-3.372,11.86-8.043,16.694-13.608c2.565-2.951,3.969-5.63,4.456-9.439c0.507-3.963-0.915-7.645,0.851-11.596
	c0.904-2.024,2.255-4.32,4.056-5.64c2.128-1.56,4.712-1.138,6.886-2.533c4.802-3.079,4.516-9.025,5.963-13.911
	c1.866-6.301,5.035-6.956,10.143-9.063c6.736-2.778,5.196-10.932,8.267-16.245c1.745-3.018,3.235-4.735,6.391-6.311
	c2.805-1.401,4.674-2.502,6.858-4.884c4.23-4.615,7.281-11.329,8.355-17.451c0.897-5.102,0.282-10.461,1.352-15.471
	c0.301-1.412,0.713-2.801,1.36-4.143c0.894-1.858,2.317-4.32,2.652-6.403c0.407-2.538-1.981-6.642-2.323-9.28
	C504.027,689.102,506.756,683.304,506.872,677.192z"/>
<path d="M213.422,626.489c35.406-16.165,68.58-24.663,97.416-32.648c18.419-5.122,35.087-10.012,49.451-16.701
	c8.106-3.775,15.497-8.108,22.008-13.416c1.699-1.39,1.95-3.894,0.56-5.594c-1.39-1.699-3.894-1.95-5.594-0.56
	c-5.953,4.89-12.931,8.972-20.786,12.585c-13.489,6.205-29.595,11.009-47.761,16.023c-28.722,7.96-62.441,16.573-98.594,33.077
	c-2.393,1.088-4.594,1.549-6.738,1.552c-2.583-0.003-5.138-0.68-7.795-2.054c-4.64-2.39-9.476-7.023-14.088-13.223
	c-6.939-9.286-13.383-21.958-19.005-35.079c-4.362-10.168-8.236-20.576-11.594-29.988c-0.823-9.836-0.309-23.23,6.217-33.672
	c10.371-16.593,15.257-29.904,14.647-38.447c-0.872-12.204-5.811-20.248-5.861-20.33v-0.001c0,0-0.009-0.014-0.009-0.014
	s-38.955,17.784-40.511,24.007c-1.556,6.222-7.993,26.613-4.882,39.057c1.945,7.783,14.19,22.576,23.092,32.569
	c5.647,15.8,12.796,34.532,21.368,50.423c5.095,9.427,10.669,17.863,16.929,24.148c3.135,3.139,6.454,5.748,10.034,7.608
	c3.572,1.858,7.438,2.952,11.457,2.949c2.894,0.003,5.833-0.604,8.735-1.752C212.553,626.836,212.989,626.687,213.422,626.489z"/>
<path style="fill:#FCE2DC;" d="M475.288,1758.31c-0.704,0.533-1.385,1.118-2.001,1.835c-2.374,2.756-4.03,5.952-5.693,9.172
	c-2.412,4.671-5.901,4.843-9.495,8.323c-4.661,4.513-5.02,11.532-7.806,17.134c-2.25,4.522-5.77,8.268-7.731,13.013
	c-2.179,5.276-4.389,9.769-4.191,15.776c0.183,5.513,2.917,11.535,4.729,16.731c0.924,2.647,2.047,5.152,3.171,7.648
	c0.485,1.077,0.974,2.153,1.442,3.237c1.461,3.39,1.904,7.675,5.118,10.151c1.901,1.466,3.225,1.154,5.46,1.286
	c7.169,0.424,9.662,9.296,16.333,10.947c2.229,0.552,5.031,0.417,7.236,0.764c2.813,0.443,5.595,1.362,8.423,1.734
	c5.268,0.694,10.585-1.346,15.943-0.88c5.764,0.501,11.386,3.514,17.209,2.897c2.623-0.277,4.259-0.755,7.09-0.594
	c1.038,0.101,2.078,0.202,3.116,0.303c1.52-0.552,3.088-0.882,4.704-0.989c2.166,0.144,4.758,1.926,6.811,2.334
	c2.273,0.451,4.976,0.177,7.224,0.391c5.493,0.525,11.137,2.326,16.67,1.872c7.136-0.586,10.952-8.703,18.621-7.107
	c8.744,1.82,17.637-2.821,23.038-9.839c1.759-2.284,3.027-4.083,5.52-5.586c5.388-3.249,11.841-6.257,15.898-11.275
	c3.115-3.854,4.694-8.482,7.53-12.458c4.214-5.909,9.607-9.934,14.977-14.837c5.737-5.24,10.614-10.013,14.495-16.644
	c2.387-4.076,3.715-9.026,5.878-13.277c2.625-5.16,6.151-8.432,10.484-12.061c6.77-5.671,11.897-12.966,15.714-20.904
	c1.741-3.62,2.645-7.13,4.136-10.48C631.321,1777.184,547.704,1799.26,475.288,1758.31z"/>
<path style="fill:#C2775C;" d="M793.259,1474.487c-4.952-2.931-8.733-7.984-13.628-10.844c-2.609-1.225-5.218-2.451-7.826-3.676
	c-7.702-1.716-15.491-2.821-23.369-3.314c-1.612-0.552-3.223-1.104-4.835-1.655c-4.074-0.634-7.271-2.707-9.589-6.219
	c-0.768-0.504-1.537-1.008-2.304-1.513c-2.9,1.193-5.874,1.436-8.921,0.731c-9.619-0.771-17.254-5.425-25.855-9.335
	c-7.269-3.305-14.517-5.185-22.152-7.477c-1.389-0.417-2.777-0.833-4.165-1.251c-4.909-2.908-7.59-7.209-8.043-12.903
	c-0.702-1.892-1.402-3.784-2.105-5.676c-2.549-1.876-5.363-3.118-8.439-3.725c-5.097-1.476-12.627-1.826-16.947-5.02
	c-4.622-3.417-6.441-8.635-9.647-13.177c-3.901-5.526-9.341-5.937-15.447-7.873c-5.794-1.838-10.822-3.703-14.582-8.825
	c-0.597-0.813-1.194-1.625-1.79-2.437c-1.714-3.497-4.382-6.024-8.005-7.581c-4.619-3.63-7.178-6.622-8.561-12.599
	c-1.196-5.166-12.529-12.765-15.162-13.528c-0.069-0.021-0.2-0.089-0.257-0.1c-2.215-0.403-2.711,12.087-3.184,13.897
	c-0.854,3.27-0.652,5.263,0.012,8.209c0.084,0.376,0.148,0.709,0.248,1.123c0.681,2.83,1.702,5.92,2.084,8.816
	c0.197,1.492-0.132,2.905,0.195,4.362c0.683,3.036,1.754,6.309,1.87,9.61c0.111,3.194,0.047,6.42,1.011,9.522
	c0.621,1.998,1.596,3.887,2.075,6.047c0.835,3.766,0.999,7.585,1.7,11.366c0.488,2.632,1.223,5.148,1.278,7.828
	c0.068,3.375-0.83,6.769-1.17,10.121c-0.534,5.248-0.896,10.514-1.328,15.772c-0.958,11.692,0.547,23.047,0.554,34.741
	c0.005,6.694-0.384,13.505,0.079,20.178c0.5,7.214,2.494,14.207,1.553,21.483c-0.658,5.086-1.578,10.262-1.679,15.4
	c-0.052,2.681,1.18,4.674,1.239,7.399c0.171,7.744-2.575,15.394-3.55,23.053c-0.891,6.986-3.297,14.141-2.922,21.217
	c0.267,5.021,2.919,9.545,3.223,14.606c0.111,1.85,0.346,3.526-0.665,5.187c-0.905,1.484-2.713,1.886-3.401,3.539
	c-1.583,3.806,0.38,9.888-0.257,14.008c-0.918,5.937-4.094,10.711-3.219,16.893c0.228,1.604,0.759,3.517-0.039,5.12
	c-0.807,1.624-2.831,2.766-3.701,4.422c-1.283,2.442-1.102,5.378-1.452,8.019c-0.393,2.967-1.35,5.783-1.706,8.743
	c-0.478,3.985-0.355,8.724-3.907,11.515c-1.699,1.337-2.611,1.039-4.122,3.303c-2.262,3.391-1.27,7.726-1.336,11.49
	c-0.071,4.079-1.969,7.673-2.175,11.696c-0.201,3.907-1.851,6.223-4.383,9.362c-2.814,3.486-6.573,4.94-8.778,8.983
	c-0.921,1.687-1.169,3.058-2.553,4.325c-2.289,2.096-6.242,3.265-8.987,4.65c-4.991,2.517-9.549,4.222-13.745,8.111
	c-1.605,1.489-3.325,3.988-5.379,4.889c-1.233,0.541-3.523,0.108-4.85,0.631c-3.062,1.208-4.945,3.617-6.986,5.906
	c-0.71,0.796-1.439,1.577-2.244,2.287c-1.82,1.609-3.886,2.586-5.742,3.99c72.416,40.949,156.033,18.874,230.05-11.382
	c0.784-1.761,1.721-3.48,3.049-5.145c4.233-5.305,7.891-10.596,10.84-16.696c2.922-6.049,5.073-12.58,9.428-17.745
	c0.748-0.888,1.498-1.777,2.247-2.665c5.403-4.436,9.459-9.936,12.166-16.497c3.413-6.439,6.095-15.844,11.349-21.035
	c2.398-2.368,5.223-4.187,7.414-6.801c2.496-2.979,3.66-6.127,5.272-9.513c2.626-5.513,7.171-9.311,9.899-14.782
	c2.427-4.867,1.714-6.018,2.759-10.133c0.857-3.379,3.031-6.25,4.588-9.306c2.796-5.482,2.568-11.02,3.931-16.889
	c0.848-3.654,2.627-6.865,3.543-10.514c0.754-2.999,3.009-5.607,4.401-8.54c0.842-1.775,0.742-3.297,1.213-5.264
	c0.565-2.356,1.906-4.265,2.881-6.463c1.131-2.548,2.66-4.85,4.034-7.215c3.768-6.483,3.931-13.686,6.519-20.657
	c1.57-4.232,2.884-8.42,4.303-12.689c1.135-3.412,3.511-6.12,4.659-9.503c0.744-2.192,0.769-3.363,2.113-5.647
	c3.215-5.46,5.253-9.348,5.176-16.098c-0.031-2.85-0.539-4.796,0.893-7.444c1.177-2.179,2.754-4.542,1.091-7.143
	c-0.379-0.593-1.231-1.143-2.227-1.635c-2.252-1.114-5.325-1.908-5.944-2.04C811.879,1476.941,801.568,1479.404,793.259,1474.487z"
	/>
<path d="M443.044,1772.035c0.88-2.012-0.038-4.355-2.049-5.234c-2.012-0.88-4.355,0.037-5.234,2.049
	c-9.371,21.43-14.946,44.498-16.397,67.842c-0.137,2.192,1.53,4.079,3.722,4.215c2.191,0.136,4.078-1.53,4.215-3.721h-0.001
	C428.69,1814.776,434.049,1792.606,443.044,1772.035z"/>
<path d="M470.219,1860.233c-0.322,2.172,1.178,4.194,3.35,4.516c2.172,0.322,4.194-1.178,4.517-3.35h-0.001
	c3.13-21.118,9.192-41.805,17.957-61.271c0.901-2.002,0.008-4.355-1.993-5.256c-2.002-0.902-4.356-0.009-5.256,1.993
	C479.725,1817.001,473.457,1838.388,470.219,1860.233z"/>
<path d="M521.861,1862.842c-0.394,2.16,1.038,4.23,3.198,4.624c2.16,0.394,4.23-1.038,4.624-3.198l0,0
	c4.036-22.149,10.146-39.361,17.467-52.231c1.085-1.909,0.417-4.335-1.491-5.421c-1.909-1.085-4.336-0.418-5.421,1.491
	C532.356,1821.972,526.022,1840.02,521.861,1862.842z"/>
<path d="M848.204,1338.152c-0.956,21.754-2.538,43.609-6.064,65.113c-0.815,4.974,6.797,7.113,7.618,2.1
	c3.535-21.563,5.243-43.438,6.257-65.251c1.027-22.099,1.41-44.362-0.317-66.437c-0.394-5.035-8.297-5.078-7.9,0
	C849.474,1295.102,849.147,1316.701,848.204,1338.152z"/>
<path style="fill:#C2775C;" d="M1278.938,1409.039c7.615,10.533,14.913,22.131,21.871,33.376
	c4.732,7.646,12.302,13.133,18.117,20.047c10.651,12.664,22.241,24.68,34.882,35.324c4.428,3.729,8.042,8.547,12.711,11.958
	c4.485,3.277,9.805,5.486,14.46,8.536c20.729,13.582,43.17,23.736,64.968,35.483c7.123,3.839,14.822,6.245,21.881,10.198
	c5.884,3.293,11.123,7.529,17.148,10.585c5.905,2.995,9.805,6.668,14.799,10.271c2.408,1.737,5.569,2.765,8.45,4.084
	c1.298,0.595,2.553,1.235,3.634,2.049c4.378,3.302,3.422,5.951,2.476,11.193c-0.963,5.345-0.107,10.611-0.956,15.981
	c-0.721,4.56-1.571,7.969-1.667,12.563c-0.245,11.694,0.047,23.45,0.047,35.146c0,10.985-0.093,21.974,0.049,32.958
	c0.111,8.639-2.023,16.953-2.178,25.544c-0.127,7.065-0.497,14.052-4.108,20.354c-3.146,5.491-10.092,10.333-15.376,14.718
	c-12.015,9.972-25.638,19.675-35.801,31.877c30.444,8.05,60.889,12.302,91.332,14.521c0.072-2.746-0.116-5.564-0.732-8.435
	c-3.111-14.52,6.741-21.779,4.667-38.891c4.536-15.075,15.369-53.242,19.446-68.448c1.479-7.397,20.3-30.717,21.779-38.113
	c3.544-15.61,1.025-43.192,6.223-58.336c0.966-9.345,8.486-21.713,9.453-31.058c-5.122-19.834-17.974-29.844-38.557-30.031
	c-7.198-0.31-14.396-0.62-21.595-0.929c-11.841-3.78-22.988-9.056-33.438-15.827c-12.56-3.924-25.055-8.047-37.482-12.368
	c-9.863-6.824-19.266-14.233-28.211-22.229c-13.612-10.515-26.002-17.101-41.568-23.518c-19.686-4.274-37.209-13.028-52.567-26.26
	c-13.48-13.895-25.239-29.099-35.278-45.614c-5.139-6.246-10.278-12.493-15.417-18.738c-11.552-11.758-19.858-25.455-24.916-41.093
	c-3.043-10.942-6.742-21.656-11.098-32.139c-0.321-1.256-0.609-2.509-0.879-3.75c-0.111,3.442-0.194,6.882-0.253,10.319
	c-0.439,25.726-0.398,53.305,7.638,78.027c0.976,3.004-1.574,4.926-4.03,4.824c0.67,2.228,1.415,4.421,2.354,6.538
	c0.786,1.773,1.141,3.729,1.474,5.725c0.261,1.567,0.509,3.157,0.947,4.712C1274.56,1403.461,1277.004,1406.366,1278.938,1409.039z"
	/>
<path style="fill:#FCE2DC;" d="M1557.763,1877.119c-0.975-2.837-3.484-10.911-3.484-19.079c0-12.828-12.704-15.297-13.223-24.112
	c-0.416-7.072,4.33-16.983,4.62-28.122c-30.444-2.218-60.888-6.47-91.332-14.521c-2.509,3.012-4.865,6.134-6.866,9.499
	c-0.63,1.058-1.269,2.101-1.906,3.147c-6.291,10.331-12.681,20.214-14.603,31.486c-0.363,2.133-0.614,4.301-0.622,6.547
	c-0.02,5.496-0.086,14.298,1.038,19.705c1.732,8.333,13.76,14.823,22.176,17.787c-0.027-0.092-0.093-0.162-0.114-0.258
	c-0.996-4.485-1.478-9.056-1.478-13.618c0.014-18.049,7.479-36.018,20.795-48.406c1.608-1.494,4.124-1.4,5.618,0.209
	c1.493,1.609,1.4,4.124-0.208,5.618c-11.586,10.735-18.268,26.728-18.254,42.58c0,4.004,0.423,7.996,1.289,11.894h0
	c0.324,1.461-0.243,2.873-1.289,3.8c8.495,2.187,15.656,3.1,24.873,3.21c8.337,0.1,62.485,7.778,73.374-6.222
	C1558.167,1878.263,1557.995,1877.794,1557.763,1877.119z"/>
<path d="M1272.889,1378.375c-8.036-24.723-8.077-52.301-7.638-78.027c0.059-3.437,0.142-6.877,0.253-10.319
	c0.777-24.235,2.911-48.573,7.381-72.377c0.934-4.969-6.679-7.099-7.618-2.1c-5.234,27.876-7.442,56.463-7.916,84.796
	c-0.442,26.382-0.323,54.769,7.92,80.128c0.596,1.836,2.075,2.661,3.588,2.724
	C1271.315,1383.301,1273.866,1381.379,1272.889,1378.375z"/>
<path d="M1461.209,1877.475L1461.209,1877.475c-0.867-3.898-1.289-7.891-1.289-11.894c-0.014-15.852,6.668-31.844,18.254-42.58
	c1.608-1.494,1.701-4.009,0.208-5.618c-1.494-1.609-4.009-1.702-5.618-0.209c-13.316,12.388-20.781,30.357-20.795,48.406
	c0,4.563,0.481,9.133,1.478,13.618c0.021,0.096,0.086,0.166,0.114,0.258c0.592,1.978,2.581,3.216,4.629,2.761
	c0.682-0.152,1.242-0.51,1.73-0.943C1460.965,1880.348,1461.533,1878.936,1461.209,1877.475z"/>
<path d="M1500.37,1877.754l-0.001,0c-0.489-2.959-0.73-5.961-0.73-8.968c-0.007-12.79,4.376-25.654,12.327-35.626
	c1.368-1.717,1.085-4.218-0.632-5.586c-1.717-1.368-4.218-1.085-5.586,0.632c-9.123,11.464-14.054,25.992-14.06,40.58
	c0,3.43,0.274,6.866,0.836,10.265c0.357,2.166,2.404,3.632,4.571,3.274C1499.262,1881.967,1500.727,1879.92,1500.37,1877.754z"/>
<path style="fill:#FCE2DC;" d="M1986.665,1365.688c-2.982-6.851-4.831-13.781-9.669-19.638c-3.8-4.601-9.38-7.378-12.859-12.157
	c4.671,0.231,12.654,4.481,16.086-0.793c-4.279-7.585-13.862-12.938-20.399-18.435c-6.44-5.417-12.536-11.473-19.281-16.483
	c-6.422-4.771-24.322-8.724-24.322-8.724s1.245,0.929,2.484,2.311c1.813,2.025,3.604,5.053,1.405,7.801
	c-2.074,2.593-4.148,1.556-5.445,5.186c-0.875,2.449-0.135,7.094-0.778,9.852c-0.757,3.247-8.767,3.885-10.111,7
	c-2.548,5.906-8.037,2.333-11.926,7c-3.889,4.667-6.304,12.099-13.223,15.557c-8.971,4.483-18.871,2.577-24.181,12.329
	c-2.666,4.895-2.869,14.987-8.37,17.825c-4.904,2.529-9.145-1.426-12.525-4.318c-7.863-6.726-12.75-9.749-23.153-10.943
	c-13.94-1.599-26.458-2.451-39.823-7.598c-8.292-3.193-16.14-7.437-25.231-7.928c-5.834-0.315-19.364,0.113-20.984-0.729
	c-1.577-0.82-3.246-2.652-3.338-2.752c-0.002-0.003-0.033-0.034-0.033-0.034s-0.843,0.518-0.324,2.917
	c0.518,2.398,1.697,5.737,1.685,9.398c-0.006,1.927,0.678,4.499,0.924,6.4c0.289,2.231,1.324,2.954,1.661,4.562
	c0.802,3.825,0.879,6.977,2.026,10.371c0.797,2.356,1.947,4.646,2.962,6.949c0.583,1.323,1.134,2.65,1.519,3.997
	c0.266,0.93,0.484,1.918,0.726,2.875c1.924,7.599,3.279,15.892,6.135,23.152c1.552,3.945,5.343,6.501,7.366,10.171
	c2.602,4.721,1.755,9.936,4.008,14.619c2.459,5.114,7.622,9.465,11.028,14.051c2.413,3.248,4.807,6.604,7.352,9.725
	c4.104,5.032,10.135,8.187,15.564,11.6c5.331,3.352,5.809,8.144,10.596,11.917c3.036,2.393,6.483,2.937,9.939,4.399
	c5.302,2.244,6.672,4.393,10.571,8.153c2.783,2.684,6.978,4.297,10.496,6.477c3.955,2.45,7.791,3.398,12.234,4.662
	c4.218,1.199,7.227,3.76,10.973,5.868c3.336,1.877,7.641,5.492,11.589,3.713c-1.285-4.591-4.587-10.531,2.49-9.818
	c6.62,0.667,13.903,6.681,20.567,8.343c9.077,2.264,17.623,1.337,26.822,1.696c11.265,0.439,22.604,4.117,33.826,4.156
	c4.278-4.168-0.35-7.16-2.628-10.205c-2.083-2.783-3.383-6.192-5.629-8.707c9.252,3.587,17.197,13.036,26.581,15.366
	c7.62-5.234-4.332-26.299,0.83-29.191c4.828,2.047,8.294,4.992,12.74,7.663c2.592-2.655,3.474-7.003,5.018-10.327
	c2.727-5.872,5.148-11.855,7.043-18.048c4.149-13.553,7.435-26.037,7.474-40.327c0.016-5.71-0.81-9.084-2.709-14.384
	c-1.46-4.074-4.851-11.013-3.462-15.224c3.84,1.517,4.43,5.849,8.848,6.625c4.471-5.574,5.251-11.755,1.129-17.863
	C1994.404,1378.996,1989.975,1373.294,1986.665,1365.688z"/>
</svg>
